<?xml version="1.0" ?><svg id="Layer_1_1_" style="enable-background:new 0 0 64 64;" version="1.1" viewBox="0 0 64 64" xml:space="preserve" xmlns="http://www.w3.org/2000/svg" xmlns:xlink="http://www.w3.org/1999/xlink"><g><path d="M44,24c1.657,0,3-4.925,3-11S45.657,2,44,2h-5c1.657,0,3,4.925,3,11s-1.343,11-3,11H44z" style="fill:#FFA64D;"/><path d="M24,62c1.657,0,3-4.925,3-11s-1.343-11-3-11h-5c1.657,0,3,4.925,3,11s-1.343,11-3,11H24z" style="fill:#FFA64D;"/><path d="M52.5,31h-41C6.813,31,3,27.187,3,22.5S6.813,14,11.5,14h12.515c0.119,4.498,1.053,11,3.985,11h31   c3.158,0,4-7.543,4-12S62.158,1,59,1H28c-2.932,0-3.867,6.502-3.985,11H11.5C5.71,12,1,16.71,1,22.5S5.71,33,11.5,33h41   c4.687,0,8.5,3.813,8.5,8.5S57.187,50,52.5,50H39.985C39.867,45.502,38.932,39,36,39H5c-3.158,0-4,7.543-4,12s0.842,12,4,12h31   c2.932,0,3.867-6.502,3.985-11H52.5C58.29,52,63,47.29,63,41.5S58.29,31,52.5,31z M61,13c0,6.043-1.33,9.727-2,10H30.378   C31.61,20.453,32,16.021,32,13c0-3.021-0.39-7.454-1.622-10l28.58-0.005C59.67,3.273,61,6.957,61,13z M27.958,2.994   C28.67,3.273,30,6.957,30,13c0,6.019-1.319,9.695-1.95,10h-0.017c-0.674-0.288-1.884-3.577-2.02-9H28v-2h-1.986   C26.149,6.554,27.365,3.258,27.958,2.994z M3,51c0-6.043,1.33-9.727,1.958-10.006C5.67,41.273,7,44.957,7,51   c0,6.019-1.319,9.695-1.95,10H5.034C4.319,60.695,3,57.019,3,51z M36,61H7.378C8.61,58.453,9,54.021,9,51   c0-3.021-0.39-7.454-1.622-10l28.58-0.005C36.67,41.273,38,44.957,38,51S36.67,60.727,36,61z" style="fill:#333333;"/></g></svg>